<mxfile host="app.diagrams.net" agent="Mozilla/5.0 (Windows NT 10.0; Win64; x64) AppleWebKit/537.36 (KHTML, like Gecko) Chrome/134.0.0.0 Safari/537.36" version="26.1.0">
  <diagram name="Seite-1" id="gkkskUzgAtUTZo50zCOZ">
    <mxGraphModel dx="2065" dy="731" grid="1" gridSize="10" guides="1" tooltips="1" connect="1" arrows="1" fold="1" page="1" pageScale="1" pageWidth="827" pageHeight="1169" math="0" shadow="0">
      <root>
        <mxCell id="0" />
        <mxCell id="1" parent="0" />
        <UserObject label="" id="DUG1_Ckx98TAZmIUl0dM-3">
          <mxCell style="rounded=0;whiteSpace=wrap;html=1;" vertex="1" parent="1">
            <mxGeometry x="-70" y="140" width="1190" height="860" as="geometry" />
          </mxCell>
        </UserObject>
        <mxCell id="DUG1_Ckx98TAZmIUl0dM-4" value="Backend" style="rounded=0;whiteSpace=wrap;html=1;" vertex="1" parent="1">
          <mxGeometry x="187.5" y="880" width="375" height="110" as="geometry" />
        </mxCell>
        <mxCell id="DUG1_Ckx98TAZmIUl0dM-9" value="" style="endArrow=none;html=1;rounded=0;" edge="1" parent="1" source="DUG1_Ckx98TAZmIUl0dM-4" target="DUG1_Ckx98TAZmIUl0dM-3">
          <mxGeometry width="50" height="50" relative="1" as="geometry">
            <mxPoint x="430" y="770" as="sourcePoint" />
            <mxPoint x="375" y="750" as="targetPoint" />
          </mxGeometry>
        </mxCell>
        <mxCell id="DUG1_Ckx98TAZmIUl0dM-10" value="HTTP:80" style="text;html=1;align=center;verticalAlign=middle;whiteSpace=wrap;rounded=0;" vertex="1" parent="1">
          <mxGeometry x="400" y="810" width="60" height="30" as="geometry" />
        </mxCell>
        <mxCell id="DUG1_Ckx98TAZmIUl0dM-14" value="" style="rounded=0;whiteSpace=wrap;html=1;" vertex="1" parent="1">
          <mxGeometry x="120" y="470" width="510" height="300" as="geometry" />
        </mxCell>
        <mxCell id="DUG1_Ckx98TAZmIUl0dM-15" value="Service.js&lt;div&gt;axios 1.7.9&lt;/div&gt;" style="rounded=0;whiteSpace=wrap;html=1;" vertex="1" parent="1">
          <mxGeometry x="287.5" y="730" width="175" height="50" as="geometry" />
        </mxCell>
        <mxCell id="DUG1_Ckx98TAZmIUl0dM-16" value="Manual.jsx&lt;div&gt;&lt;br&gt;&lt;/div&gt;" style="rounded=0;whiteSpace=wrap;html=1;" vertex="1" parent="1">
          <mxGeometry x="170" y="480" width="110" height="60" as="geometry" />
        </mxCell>
        <mxCell id="DUG1_Ckx98TAZmIUl0dM-17" value="React&lt;br&gt;19.0.0&lt;br&gt;node 11.1.0" style="text;html=1;align=center;verticalAlign=middle;whiteSpace=wrap;rounded=0;" vertex="1" parent="1">
          <mxGeometry x="345" y="420" width="60" height="30" as="geometry" />
        </mxCell>
        <mxCell id="DUG1_Ckx98TAZmIUl0dM-18" value="Connection.jsx" style="rounded=0;whiteSpace=wrap;html=1;" vertex="1" parent="1">
          <mxGeometry x="220" y="640" width="120" height="60" as="geometry" />
        </mxCell>
        <mxCell id="DUG1_Ckx98TAZmIUl0dM-19" value="server.js" style="rounded=0;whiteSpace=wrap;html=1;" vertex="1" parent="1">
          <mxGeometry x="-40" y="640" width="100" height="60" as="geometry" />
        </mxCell>
        <mxCell id="DUG1_Ckx98TAZmIUl0dM-21" value="Automatic.jsx" style="rounded=0;whiteSpace=wrap;html=1;" vertex="1" parent="1">
          <mxGeometry x="315" y="480" width="120" height="60" as="geometry" />
        </mxCell>
        <mxCell id="DUG1_Ckx98TAZmIUl0dM-22" value="" style="endArrow=none;html=1;rounded=0;entryX=0.5;entryY=1;entryDx=0;entryDy=0;exitX=0;exitY=0.5;exitDx=0;exitDy=0;" edge="1" parent="1" source="DUG1_Ckx98TAZmIUl0dM-23" target="DUG1_Ckx98TAZmIUl0dM-16">
          <mxGeometry width="50" height="50" relative="1" as="geometry">
            <mxPoint x="430" y="640" as="sourcePoint" />
            <mxPoint x="480" y="590" as="targetPoint" />
          </mxGeometry>
        </mxCell>
        <mxCell id="DUG1_Ckx98TAZmIUl0dM-23" value="MainControl.jsx" style="rounded=0;whiteSpace=wrap;html=1;" vertex="1" parent="1">
          <mxGeometry x="315" y="554.5" width="120" height="60" as="geometry" />
        </mxCell>
        <mxCell id="DUG1_Ckx98TAZmIUl0dM-24" value="Map.jsx" style="rounded=0;whiteSpace=wrap;html=1;" vertex="1" parent="1">
          <mxGeometry x="460" y="480" width="120" height="60" as="geometry" />
        </mxCell>
        <mxCell id="DUG1_Ckx98TAZmIUl0dM-25" value="" style="endArrow=none;html=1;rounded=0;entryX=0.5;entryY=1;entryDx=0;entryDy=0;exitX=1;exitY=0.5;exitDx=0;exitDy=0;" edge="1" parent="1" source="DUG1_Ckx98TAZmIUl0dM-23" target="DUG1_Ckx98TAZmIUl0dM-24">
          <mxGeometry width="50" height="50" relative="1" as="geometry">
            <mxPoint x="430" y="640" as="sourcePoint" />
            <mxPoint x="480" y="590" as="targetPoint" />
          </mxGeometry>
        </mxCell>
        <mxCell id="DUG1_Ckx98TAZmIUl0dM-26" value="" style="endArrow=none;html=1;rounded=0;entryX=0.5;entryY=1;entryDx=0;entryDy=0;exitX=0.5;exitY=0;exitDx=0;exitDy=0;" edge="1" parent="1" source="DUG1_Ckx98TAZmIUl0dM-23" target="DUG1_Ckx98TAZmIUl0dM-21">
          <mxGeometry width="50" height="50" relative="1" as="geometry">
            <mxPoint x="430" y="640" as="sourcePoint" />
            <mxPoint x="480" y="590" as="targetPoint" />
          </mxGeometry>
        </mxCell>
        <mxCell id="DUG1_Ckx98TAZmIUl0dM-28" value="" style="endArrow=none;html=1;rounded=0;exitX=0.5;exitY=1;exitDx=0;exitDy=0;entryX=0;entryY=0;entryDx=0;entryDy=0;" edge="1" parent="1" source="DUG1_Ckx98TAZmIUl0dM-18" target="DUG1_Ckx98TAZmIUl0dM-15">
          <mxGeometry width="50" height="50" relative="1" as="geometry">
            <mxPoint x="430" y="640" as="sourcePoint" />
            <mxPoint x="480" y="590" as="targetPoint" />
            <Array as="points" />
          </mxGeometry>
        </mxCell>
        <mxCell id="DUG1_Ckx98TAZmIUl0dM-34" value="" style="endArrow=none;html=1;rounded=0;entryX=0.5;entryY=1;entryDx=0;entryDy=0;exitX=0.5;exitY=0;exitDx=0;exitDy=0;" edge="1" parent="1" source="DUG1_Ckx98TAZmIUl0dM-18" target="DUG1_Ckx98TAZmIUl0dM-23">
          <mxGeometry width="50" height="50" relative="1" as="geometry">
            <mxPoint x="270" y="645" as="sourcePoint" />
            <mxPoint x="385" y="730" as="targetPoint" />
            <Array as="points">
              <mxPoint x="280" y="630" />
              <mxPoint x="310" y="630" />
            </Array>
          </mxGeometry>
        </mxCell>
        <mxCell id="DUG1_Ckx98TAZmIUl0dM-38" value="" style="endArrow=none;html=1;rounded=0;entryX=0.5;entryY=1;entryDx=0;entryDy=0;exitX=0.5;exitY=0;exitDx=0;exitDy=0;" edge="1" parent="1" source="DUG1_Ckx98TAZmIUl0dM-15" target="DUG1_Ckx98TAZmIUl0dM-23">
          <mxGeometry width="50" height="50" relative="1" as="geometry">
            <mxPoint x="340" y="760" as="sourcePoint" />
            <mxPoint x="390" y="710" as="targetPoint" />
          </mxGeometry>
        </mxCell>
        <mxCell id="DUG1_Ckx98TAZmIUl0dM-41" value="Cors&lt;br&gt;2.8.5" style="rounded=0;whiteSpace=wrap;html=1;" vertex="1" parent="1">
          <mxGeometry x="-40" y="720" width="40" height="50" as="geometry" />
        </mxCell>
        <mxCell id="DUG1_Ckx98TAZmIUl0dM-42" value="fs&lt;div&gt;0.0.1&lt;/div&gt;" style="rounded=0;whiteSpace=wrap;html=1;" vertex="1" parent="1">
          <mxGeometry x="20" y="720" width="40" height="50" as="geometry" />
        </mxCell>
        <mxCell id="DUG1_Ckx98TAZmIUl0dM-43" value="" style="endArrow=none;html=1;rounded=0;entryX=0.75;entryY=1;entryDx=0;entryDy=0;" edge="1" parent="1" source="DUG1_Ckx98TAZmIUl0dM-42" target="DUG1_Ckx98TAZmIUl0dM-19">
          <mxGeometry width="50" height="50" relative="1" as="geometry">
            <mxPoint x="310" y="790" as="sourcePoint" />
            <mxPoint x="360" y="740" as="targetPoint" />
          </mxGeometry>
        </mxCell>
        <mxCell id="DUG1_Ckx98TAZmIUl0dM-44" value="" style="endArrow=none;html=1;rounded=0;entryX=0.165;entryY=1.05;entryDx=0;entryDy=0;exitX=0.5;exitY=0;exitDx=0;exitDy=0;entryPerimeter=0;" edge="1" parent="1" source="DUG1_Ckx98TAZmIUl0dM-41" target="DUG1_Ckx98TAZmIUl0dM-19">
          <mxGeometry width="50" height="50" relative="1" as="geometry">
            <mxPoint x="310" y="790" as="sourcePoint" />
            <mxPoint x="360" y="740" as="targetPoint" />
          </mxGeometry>
        </mxCell>
        <mxCell id="DUG1_Ckx98TAZmIUl0dM-45" value="" style="endArrow=none;html=1;rounded=0;entryX=0;entryY=0.5;entryDx=0;entryDy=0;exitX=1;exitY=0.5;exitDx=0;exitDy=0;" edge="1" parent="1" source="DUG1_Ckx98TAZmIUl0dM-19" target="DUG1_Ckx98TAZmIUl0dM-18">
          <mxGeometry width="50" height="50" relative="1" as="geometry">
            <mxPoint x="310" y="790" as="sourcePoint" />
            <mxPoint x="360" y="740" as="targetPoint" />
          </mxGeometry>
        </mxCell>
        <mxCell id="DUG1_Ckx98TAZmIUl0dM-53" value="localhost:3000" style="text;html=1;align=center;verticalAlign=middle;whiteSpace=wrap;rounded=0;" vertex="1" parent="1">
          <mxGeometry x="345" y="370" width="60" height="30" as="geometry" />
        </mxCell>
        <mxCell id="DUG1_Ckx98TAZmIUl0dM-54" value="" style="endArrow=none;html=1;rounded=0;entryX=0.5;entryY=0;entryDx=0;entryDy=0;" edge="1" parent="1" source="DUG1_Ckx98TAZmIUl0dM-55" target="DUG1_Ckx98TAZmIUl0dM-19">
          <mxGeometry width="50" height="50" relative="1" as="geometry">
            <mxPoint x="260" y="580" as="sourcePoint" />
            <mxPoint x="310" y="530" as="targetPoint" />
          </mxGeometry>
        </mxCell>
        <mxCell id="DUG1_Ckx98TAZmIUl0dM-56" value="localhost:3001/api/sessions" style="text;html=1;align=center;verticalAlign=middle;whiteSpace=wrap;rounded=0;" vertex="1" parent="1">
          <mxGeometry x="110" y="630" width="60" height="30" as="geometry" />
        </mxCell>
        <mxCell id="DUG1_Ckx98TAZmIUl0dM-59" value="Post/Get -Requests" style="text;html=1;align=center;verticalAlign=middle;whiteSpace=wrap;rounded=0;" vertex="1" parent="1">
          <mxGeometry x="20" y="583.74" width="60" height="30" as="geometry" />
        </mxCell>
        <mxCell id="DUG1_Ckx98TAZmIUl0dM-60" value="Post/Get -Requests" style="text;html=1;align=center;verticalAlign=middle;whiteSpace=wrap;rounded=0;" vertex="1" parent="1">
          <mxGeometry x="400" y="840" width="60" height="30" as="geometry" />
        </mxCell>
        <mxCell id="DUG1_Ckx98TAZmIUl0dM-63" value="" style="image;aspect=fixed;perimeter=ellipsePerimeter;html=1;align=center;shadow=0;dashed=0;fontColor=#4277BB;labelBackgroundColor=default;fontSize=12;spacingTop=3;image=img/lib/ibm/infrastructure/mobile_backend.svg;" vertex="1" parent="1">
          <mxGeometry x="220" y="895" width="80" height="80" as="geometry" />
        </mxCell>
        <mxCell id="DUG1_Ckx98TAZmIUl0dM-69" value="" style="points=[];aspect=fixed;html=1;align=center;shadow=0;dashed=0;fillColor=#FF6A00;strokeColor=none;shape=mxgraph.alibaba_cloud.apigateway;" vertex="1" parent="1">
          <mxGeometry x="408" y="733.77" width="44" height="42.47" as="geometry" />
        </mxCell>
        <mxCell id="DUG1_Ckx98TAZmIUl0dM-71" value="" style="html=1;verticalLabelPosition=bottom;align=center;labelBackgroundColor=#ffffff;verticalAlign=top;strokeWidth=2;strokeColor=#0080F0;shadow=0;dashed=0;shape=mxgraph.ios7.icons.data;" vertex="1" parent="1">
          <mxGeometry x="-40" y="450" width="100" height="130" as="geometry" />
        </mxCell>
        <mxCell id="DUG1_Ckx98TAZmIUl0dM-55" value="sessions.json" style="strokeWidth=2;html=1;shape=mxgraph.flowchart.document2;whiteSpace=wrap;size=0.13333333333333333;" vertex="1" parent="1">
          <mxGeometry x="-30" y="490" width="80" height="50" as="geometry" />
        </mxCell>
        <mxCell id="DUG1_Ckx98TAZmIUl0dM-76" value="" style="rounded=0;whiteSpace=wrap;html=1;" vertex="1" parent="1">
          <mxGeometry x="470" y="630" width="140" height="110" as="geometry" />
        </mxCell>
        <mxCell id="DUG1_Ckx98TAZmIUl0dM-72" value="" style="verticalLabelPosition=bottom;html=1;verticalAlign=top;align=center;strokeColor=none;fillColor=#00BEF2;shape=mxgraph.azure.code_file;pointerEvents=1;" vertex="1" parent="1">
          <mxGeometry x="480" y="653.77" width="47.5" height="50" as="geometry" />
        </mxCell>
        <mxCell id="DUG1_Ckx98TAZmIUl0dM-75" value="Styles&lt;br&gt;css (css3)&lt;div&gt;Bootstrap (5.3.3)&lt;/div&gt;&lt;div&gt;React UI (0.2.4)&lt;/div&gt;" style="text;html=1;align=center;verticalAlign=middle;whiteSpace=wrap;rounded=0;" vertex="1" parent="1">
          <mxGeometry x="540" y="670" width="60" height="30" as="geometry" />
        </mxCell>
        <mxCell id="DUG1_Ckx98TAZmIUl0dM-78" value="" style="aspect=fixed;sketch=0;html=1;dashed=0;whitespace=wrap;verticalLabelPosition=bottom;verticalAlign=top;fillColor=#2875E2;strokeColor=#ffffff;points=[[0.005,0.63,0],[0.1,0.2,0],[0.9,0.2,0],[0.5,0,0],[0.995,0.63,0],[0.72,0.99,0],[0.5,1,0],[0.28,0.99,0]];shape=mxgraph.kubernetes.icon2;kubernetesLabel=1;prIcon=api" vertex="1" parent="1">
          <mxGeometry x="350" y="870" width="50" height="48" as="geometry" />
        </mxCell>
        <mxCell id="DUG1_Ckx98TAZmIUl0dM-79" value="" style="endArrow=classic;startArrow=classic;html=1;rounded=0;entryX=0.5;entryY=1;entryDx=0;entryDy=0;exitX=0.5;exitY=0;exitDx=0;exitDy=0;exitPerimeter=0;" edge="1" parent="1" source="DUG1_Ckx98TAZmIUl0dM-78" target="DUG1_Ckx98TAZmIUl0dM-15">
          <mxGeometry width="50" height="50" relative="1" as="geometry">
            <mxPoint x="260" y="820" as="sourcePoint" />
            <mxPoint x="310" y="770" as="targetPoint" />
          </mxGeometry>
        </mxCell>
        <mxCell id="DUG1_Ckx98TAZmIUl0dM-80" value="" style="dashed=0;outlineConnect=0;html=1;align=center;labelPosition=center;verticalLabelPosition=bottom;verticalAlign=top;shape=mxgraph.weblogos.json_2" vertex="1" parent="1">
          <mxGeometry x="-25.2" y="554.5" width="70.4" height="15.2" as="geometry" />
        </mxCell>
        <mxCell id="DUG1_Ckx98TAZmIUl0dM-81" value="" style="dashed=0;outlineConnect=0;html=1;align=center;labelPosition=center;verticalLabelPosition=bottom;verticalAlign=top;shape=mxgraph.weblogos.html5" vertex="1" parent="1">
          <mxGeometry x="135.1" y="683.74" width="52.400000000000006" height="74" as="geometry" />
        </mxCell>
        <mxCell id="DUG1_Ckx98TAZmIUl0dM-83" value="" style="shape=image;html=1;verticalAlign=top;verticalLabelPosition=bottom;labelBackgroundColor=#ffffff;imageAspect=0;aspect=fixed;image=https://cdn1.iconfinder.com/data/icons/unicons-line-vol-5/24/react-128.png" vertex="1" parent="1">
          <mxGeometry x="280" y="400" width="70" height="70" as="geometry" />
        </mxCell>
        <mxCell id="DUG1_Ckx98TAZmIUl0dM-84" value="" style="points=[];aspect=fixed;html=1;align=center;shadow=0;dashed=0;fillColor=#FF6A00;strokeColor=none;shape=mxgraph.alibaba_cloud.nodejs_performance_platform;" vertex="1" parent="1">
          <mxGeometry x="408" y="411.3" width="42" height="47.400000000000006" as="geometry" />
        </mxCell>
        <mxCell id="DUG1_Ckx98TAZmIUl0dM-85" value="" style="rounded=0;whiteSpace=wrap;html=1;" vertex="1" parent="1">
          <mxGeometry x="790" y="504.8500000000001" width="330" height="230.3" as="geometry" />
        </mxCell>
        <mxCell id="DUG1_Ckx98TAZmIUl0dM-86" value="" style="image;aspect=fixed;html=1;points=[];align=center;fontSize=12;image=img/lib/azure2/other/Test_Base.svg;" vertex="1" parent="1">
          <mxGeometry x="921" y="666" width="68" height="48" as="geometry" />
        </mxCell>
        <mxCell id="DUG1_Ckx98TAZmIUl0dM-49" value="" style="sketch=0;outlineConnect=0;fontColor=#232F3E;gradientColor=none;fillColor=#232F3D;strokeColor=none;dashed=0;verticalLabelPosition=bottom;verticalAlign=top;align=center;html=1;fontSize=12;fontStyle=0;aspect=fixed;pointerEvents=1;shape=mxgraph.aws4.source_code;" vertex="1" parent="1">
          <mxGeometry x="930" y="512.7599999999998" width="41.61" height="56.94" as="geometry" />
        </mxCell>
        <mxCell id="DUG1_Ckx98TAZmIUl0dM-88" value="Integration tests" style="rounded=0;whiteSpace=wrap;html=1;" vertex="1" parent="1">
          <mxGeometry x="831" y="540" width="80" height="40" as="geometry" />
        </mxCell>
        <mxCell id="DUG1_Ckx98TAZmIUl0dM-89" value="server.js" style="rounded=0;whiteSpace=wrap;html=1;" vertex="1" parent="1">
          <mxGeometry x="-20" y="660" width="100" height="60" as="geometry" />
        </mxCell>
        <mxCell id="DUG1_Ckx98TAZmIUl0dM-90" value="Unit&amp;nbsp;&lt;br&gt;Tests" style="rounded=0;whiteSpace=wrap;html=1;" vertex="1" parent="1">
          <mxGeometry x="995" y="540" width="80" height="40" as="geometry" />
        </mxCell>
        <mxCell id="DUG1_Ckx98TAZmIUl0dM-91" value="Manual.test.jsx" style="rounded=0;whiteSpace=wrap;html=1;" vertex="1" parent="1">
          <mxGeometry x="990" y="605.15" width="90" height="40" as="geometry" />
        </mxCell>
        <mxCell id="DUG1_Ckx98TAZmIUl0dM-92" value="Connection.test.jsx" style="rounded=0;whiteSpace=wrap;html=1;" vertex="1" parent="1">
          <mxGeometry x="818.5" y="607.51" width="105" height="46.26" as="geometry" />
        </mxCell>
        <mxCell id="DUG1_Ckx98TAZmIUl0dM-93" value="" style="endArrow=none;html=1;rounded=0;entryX=0.5;entryY=1;entryDx=0;entryDy=0;exitX=0.5;exitY=0;exitDx=0;exitDy=0;" edge="1" parent="1" source="DUG1_Ckx98TAZmIUl0dM-91" target="DUG1_Ckx98TAZmIUl0dM-90">
          <mxGeometry width="50" height="50" relative="1" as="geometry">
            <mxPoint x="880" y="720" as="sourcePoint" />
            <mxPoint x="930" y="670" as="targetPoint" />
          </mxGeometry>
        </mxCell>
        <mxCell id="DUG1_Ckx98TAZmIUl0dM-94" value="" style="endArrow=none;html=1;rounded=0;entryX=0.5;entryY=1;entryDx=0;entryDy=0;exitX=0.5;exitY=0;exitDx=0;exitDy=0;" edge="1" parent="1" source="DUG1_Ckx98TAZmIUl0dM-92" target="DUG1_Ckx98TAZmIUl0dM-88">
          <mxGeometry width="50" height="50" relative="1" as="geometry">
            <mxPoint x="880" y="720" as="sourcePoint" />
            <mxPoint x="930" y="670" as="targetPoint" />
          </mxGeometry>
        </mxCell>
        <mxCell id="DUG1_Ckx98TAZmIUl0dM-96" value="" style="endArrow=none;html=1;rounded=0;entryX=0;entryY=0.5;entryDx=0;entryDy=0;exitX=1;exitY=0.5;exitDx=0;exitDy=0;" edge="1" parent="1" source="DUG1_Ckx98TAZmIUl0dM-14" target="DUG1_Ckx98TAZmIUl0dM-85">
          <mxGeometry width="50" height="50" relative="1" as="geometry">
            <mxPoint x="880" y="720" as="sourcePoint" />
            <mxPoint x="930" y="670" as="targetPoint" />
          </mxGeometry>
        </mxCell>
        <mxCell id="DUG1_Ckx98TAZmIUl0dM-100" value="&lt;pre style=&quot;box-sizing: inherit; margin-top: 1.5em; margin-bottom: 3em; padding: 20px; border: 0px; font-variant-numeric: inherit; font-variant-east-asian: inherit; font-variant-alternates: inherit; font-variant-position: inherit; font-variant-emoji: inherit; font-stretch: inherit; line-height: 1.5em; font-family: Consolas, Monaco, &amp;quot;Andale Mono&amp;quot;, &amp;quot;Ubuntu Mono&amp;quot;, monospace; font-optical-sizing: inherit; font-size-adjust: inherit; font-kerning: inherit; font-feature-settings: inherit; font-variation-settings: inherit; font-size: 1.4rem; vertical-align: baseline; background: var(--gray05); text-shadow: rgb(255, 255, 255) 0px 1px; text-align: left; word-break: normal; overflow-wrap: normal; tab-size: 4; hyphens: none; overflow: auto; min-width: 100%; max-width: 100%;&quot; tabindex=&quot;0&quot; class=&quot;language-javascript&quot;&gt;&lt;code style=&quot;box-sizing: inherit; margin: 0px; padding: 0px; border: 0px; font-style: inherit; font-variant: inherit; font-stretch: inherit; line-height: inherit; font-family: Consolas, Monaco, &amp;quot;Andale Mono&amp;quot;, &amp;quot;Ubuntu Mono&amp;quot;, monospace; font-optical-sizing: inherit; font-size-adjust: inherit; font-kerning: inherit; font-feature-settings: inherit; font-variation-settings: inherit; font-size: inherit; vertical-align: baseline; background: 0px 0px; text-shadow: rgb(255, 255, 255) 0px 1px; word-spacing: normal; word-break: normal; overflow-wrap: normal; tab-size: 4; hyphens: none;&quot; class=&quot;language-javascript&quot;&gt;&lt;font style=&quot;color: rgb(0, 0, 0);&quot;&gt;&lt;span style=&quot;box-sizing: inherit; margin: 0px; padding: 0px; border: 0px; font-style: inherit; font-variant: inherit; font-weight: inherit; font-stretch: inherit; line-height: inherit; font-family: inherit; font-optical-sizing: inherit; font-size-adjust: inherit; font-kerning: inherit; font-feature-settings: inherit; font-variation-settings: inherit; font-size: 14px; vertical-align: baseline;&quot; class=&quot;token string-property property&quot;&gt;testing-library/jest-dom&lt;/span&gt; &lt;span style=&quot;box-sizing: inherit; margin: 0px; padding: 0px; border: 0px; font-style: inherit; font-variant: inherit; font-weight: inherit; font-stretch: inherit; line-height: inherit; font-family: inherit; font-optical-sizing: inherit; font-size-adjust: inherit; font-kerning: inherit; font-feature-settings: inherit; font-variation-settings: inherit; font-size: 14px; vertical-align: baseline;&quot; class=&quot;token string&quot;&gt;&quot;^5.16.5&lt;/span&gt;&lt;/font&gt;&lt;/code&gt;&lt;/pre&gt;" style="text;html=1;align=center;verticalAlign=middle;whiteSpace=wrap;rounded=0;" vertex="1" parent="1">
          <mxGeometry x="660" y="605.15" width="90" height="20" as="geometry" />
        </mxCell>
      </root>
    </mxGraphModel>
  </diagram>
</mxfile>
